<svg height="1006" width="720" xmlns="http://www.w3.org/2000/svg">
<rect height="1006" fill="#555" width="720"></rect>
<text fill="#7f7" font-family="Courier New" font-size="12" xml:space="preserve">
<tspan x="10" y="26">6 megabytes installed</tspan>
<tspan x="10" y="42"></tspan>
<tspan x="10" y="58">node_modules</tspan>
<tspan x="10" y="74">├── UNMET PEER DEPENDENCY webpack@*</tspan>
<tspan x="10" y="90">└─┬ webpack-dashboard@0.3.0 </tspan>
<tspan x="10" y="106">  ├── blessed@0.1.81 </tspan>
<tspan x="10" y="122">  ├─┬ commander@2.9.0 </tspan>
<tspan x="10" y="138">  │ └── graceful-readlink@1.0.1 </tspan>
<tspan x="10" y="154">  ├─┬ cross-spawn@4.0.2 </tspan>
<tspan x="10" y="170">  │ ├─┬ lru-cache@4.0.2 </tspan>
<tspan x="10" y="186">  │ │ ├── pseudomap@1.0.2 </tspan>
<tspan x="10" y="202">  │ │ └── yallist@2.1.2 </tspan>
<tspan x="10" y="218">  │ └─┬ which@1.2.14 </tspan>
<tspan x="10" y="234">  │   └── isexe@2.0.0 </tspan>
<tspan x="10" y="250">  ├── filesize@3.5.6 </tspan>
<tspan x="10" y="266">  ├─┬ socket.io@1.7.3 </tspan>
<tspan x="10" y="282">  │ ├─┬ debug@2.3.3 </tspan>
<tspan x="10" y="298">  │ │ └── ms@0.7.2 </tspan>
<tspan x="10" y="314">  │ ├─┬ engine.io@1.8.3 </tspan>
<tspan x="10" y="330">  │ │ ├─┬ accepts@1.3.3 </tspan>
<tspan x="10" y="346">  │ │ │ ├─┬ mime-types@2.1.15 </tspan>
<tspan x="10" y="362">  │ │ │ │ └── mime-db@1.27.0 </tspan>
<tspan x="10" y="378">  │ │ │ └── negotiator@0.6.1 </tspan>
<tspan x="10" y="394">  │ │ ├── base64id@1.0.0 </tspan>
<tspan x="10" y="410">  │ │ ├── cookie@0.3.1 </tspan>
<tspan x="10" y="426">  │ │ ├─┬ engine.io-parser@1.3.2 </tspan>
<tspan x="10" y="442">  │ │ │ ├── after@0.8.2 </tspan>
<tspan x="10" y="458">  │ │ │ ├── arraybuffer.slice@0.0.6 </tspan>
<tspan x="10" y="474">  │ │ │ ├── base64-arraybuffer@0.1.5 </tspan>
<tspan x="10" y="490">  │ │ │ ├── blob@0.0.4 </tspan>
<tspan x="10" y="506">  │ │ │ └── wtf-8@1.0.0 </tspan>
<tspan x="10" y="522">  │ │ └─┬ ws@1.1.2 </tspan>
<tspan x="10" y="538">  │ │   ├── options@0.0.6 </tspan>
<tspan x="10" y="554">  │ │   └── ultron@1.0.2 </tspan>
<tspan x="10" y="570">  │ ├─┬ has-binary@0.1.7 </tspan>
<tspan x="10" y="586">  │ │ └── isarray@0.0.1 </tspan>
<tspan x="10" y="602">  │ ├── object-assign@4.1.0 </tspan>
<tspan x="10" y="618">  │ ├── socket.io-adapter@0.5.0 </tspan>
<tspan x="10" y="634">  │ └─┬ socket.io-parser@2.3.1 </tspan>
<tspan x="10" y="650">  │   ├── component-emitter@1.1.2 </tspan>
<tspan x="10" y="666">  │   ├─┬ debug@2.2.0 </tspan>
<tspan x="10" y="682">  │   │ └── ms@0.7.1 </tspan>
<tspan x="10" y="698">  │   └── json3@3.3.2 </tspan>
<tspan x="10" y="714">  └─┬ socket.io-client@1.7.3 </tspan>
<tspan x="10" y="730">    ├── backo2@1.0.2 </tspan>
<tspan x="10" y="746">    ├── component-bind@1.0.0 </tspan>
<tspan x="10" y="762">    ├── component-emitter@1.2.1 </tspan>
<tspan x="10" y="778">    ├─┬ engine.io-client@1.8.3 </tspan>
<tspan x="10" y="794">    │ ├── component-emitter@1.2.1 </tspan>
<tspan x="10" y="810">    │ ├── component-inherit@0.0.3 </tspan>
<tspan x="10" y="826">    │ ├── has-cors@1.1.0 </tspan>
<tspan x="10" y="842">    │ ├── parsejson@0.0.3 </tspan>
<tspan x="10" y="858">    │ ├── parseqs@0.0.5 </tspan>
<tspan x="10" y="874">    │ ├── xmlhttprequest-ssl@1.5.3 </tspan>
<tspan x="10" y="890">    │ └── yeast@0.1.2 </tspan>
<tspan x="10" y="906">    ├── indexof@0.0.1 </tspan>
<tspan x="10" y="922">    ├── object-component@0.0.3 </tspan>
<tspan x="10" y="938">    ├─┬ parseuri@0.0.5 </tspan>
<tspan x="10" y="954">    │ └─┬ better-assert@1.0.2 </tspan>
<tspan x="10" y="970">    │   └── callsite@1.0.0 </tspan>
<tspan x="10" y="986">    └── to-array@0.1.4</tspan>
</text>
</svg>
